M48
; DRILL file {KiCad 9.0.2} date 2025-07-04T23:43:32-0400
; FORMAT={-:-/ absolute / metric / decimal}
; #@! TF.CreationDate,2025-07-04T23:43:32-04:00
; #@! TF.GenerationSoftware,Kicad,Pcbnew,9.0.2
; #@! TF.FileFunction,Plated,1,2,PTH
FMAT,2
METRIC
; #@! TA.AperFunction,Plated,PTH,ComponentDrill
T1C0.700
; #@! TA.AperFunction,Plated,PTH,ComponentDrill
T2C0.889
; #@! TA.AperFunction,Plated,PTH,ComponentDrill
T3C1.210
; #@! TA.AperFunction,Plated,PTH,ComponentDrill
T4C1.500
%
G90
G05
T1
X62.92Y-84.23
X63.497Y-65.77
X68.0Y-84.23
X68.577Y-65.77
X77.946Y-84.23
X78.523Y-65.81
X83.026Y-84.23
X83.603Y-65.81
X93.46Y-84.23
X93.548Y-65.85
X98.54Y-84.23
X98.628Y-65.85
T2
X112.611Y-68.88
X112.611Y-84.12
X115.151Y-68.88
X115.151Y-84.12
X117.691Y-68.88
X117.691Y-84.12
X120.231Y-68.88
X120.231Y-84.12
X122.771Y-68.88
X122.771Y-84.12
X125.311Y-68.88
X125.311Y-84.12
X127.851Y-68.88
X127.851Y-84.12
T3
X68.0Y-77.46
X68.0Y-80.0
X68.5Y-58.73
X68.5Y-61.27
X83.0Y-77.19
X83.0Y-79.73
X83.5Y-58.73
X83.5Y-61.27
X98.0Y-59.0
X98.0Y-61.54
X98.5Y-77.19
X98.5Y-79.73
T4
X66.61Y-96.46
X72.96Y-93.92
X91.303Y-96.96
X97.653Y-94.42
X115.997Y-96.96
X116.61Y-49.96
X122.347Y-94.42
X122.96Y-47.42
M30
