%TF.GenerationSoftware,KiCad,Pcbnew,9.0.2*%
%TF.CreationDate,2025-07-04T23:43:28-04:00*%
%TF.ProjectId,pathfinder,70617468-6669-46e6-9465-722e6b696361,rev?*%
%TF.SameCoordinates,Original*%
%TF.FileFunction,Copper,L1,Top*%
%TF.FilePolarity,Positive*%
%FSLAX46Y46*%
G04 Gerber Fmt 4.6, Leading zero omitted, Abs format (unit mm)*
G04 Created by KiCad (PCBNEW 9.0.2) date 2025-07-04 23:43:28*
%MOMM*%
%LPD*%
G01*
G04 APERTURE LIST*
G04 Aperture macros list*
%AMRoundRect*
0 Rectangle with rounded corners*
0 $1 Rounding radius*
0 $2 $3 $4 $5 $6 $7 $8 $9 X,Y pos of 4 corners*
0 Add a 4 corners polygon primitive as box body*
4,1,4,$2,$3,$4,$5,$6,$7,$8,$9,$2,$3,0*
0 Add four circle primitives for the rounded corners*
1,1,$1+$1,$2,$3*
1,1,$1+$1,$4,$5*
1,1,$1+$1,$6,$7*
1,1,$1+$1,$8,$9*
0 Add four rect primitives between the rounded corners*
20,1,$1+$1,$2,$3,$4,$5,0*
20,1,$1+$1,$4,$5,$6,$7,0*
20,1,$1+$1,$6,$7,$8,$9,0*
20,1,$1+$1,$8,$9,$2,$3,0*%
G04 Aperture macros list end*
%TA.AperFunction,SMDPad,CuDef*%
%ADD10RoundRect,0.152400X-0.609600X1.063600X-0.609600X-1.063600X0.609600X-1.063600X0.609600X1.063600X0*%
%TD*%
%TA.AperFunction,ComponentPad*%
%ADD11C,1.524000*%
%TD*%
%TA.AperFunction,SMDPad,CuDef*%
%ADD12RoundRect,0.152400X0.609600X-1.063600X0.609600X1.063600X-0.609600X1.063600X-0.609600X-1.063600X0*%
%TD*%
%TA.AperFunction,ComponentPad*%
%ADD13C,2.200000*%
%TD*%
%TA.AperFunction,ComponentPad*%
%ADD14C,1.400000*%
%TD*%
%TA.AperFunction,ComponentPad*%
%ADD15C,1.815000*%
%TD*%
%TA.AperFunction,ComponentPad*%
%ADD16R,1.815000X1.815000*%
%TD*%
%TA.AperFunction,Conductor*%
%ADD17C,0.200000*%
%TD*%
G04 APERTURE END LIST*
D10*
%TO.P,U1,14,VBUS*%
%TO.N,unconnected-(U1-VBUS-Pad14)*%
X127851500Y-84955000D03*
D11*
X127851500Y-84120000D03*
D10*
%TO.P,U1,13,GND*%
%TO.N,GND*%
X125311500Y-84955000D03*
D11*
X125311500Y-84120000D03*
D10*
%TO.P,U1,12,3V3*%
%TO.N,unconnected-(U1-3V3-Pad12)*%
X122771500Y-84955000D03*
D11*
X122771500Y-84120000D03*
D10*
%TO.P,U1,11,GPIO3/MOSI*%
%TO.N,unconnected-(U1-GPIO3{slash}MOSI-Pad11)*%
X120231500Y-84955000D03*
D11*
X120231500Y-84120000D03*
D10*
%TO.P,U1,10,GPIO4/MISO*%
%TO.N,LED1*%
X117691500Y-84955000D03*
D11*
X117691500Y-84120000D03*
D10*
%TO.P,U1,9,GPIO2/SCK*%
%TO.N,LED2*%
X115151500Y-84955000D03*
D11*
X115151500Y-84120000D03*
D10*
%TO.P,U1,8,GPIO1/RX*%
%TO.N,LED3*%
X112611500Y-84955000D03*
D11*
X112611500Y-84120000D03*
%TO.P,U1,7,GPIO0/TX*%
%TO.N,button4*%
X112611500Y-68880000D03*
D12*
X112611500Y-68045000D03*
D11*
%TO.P,U1,6,GPIO7/SCL*%
%TO.N,LED6*%
X115151500Y-68880000D03*
D12*
X115151500Y-68045000D03*
D11*
%TO.P,U1,5,GPIO6/SDA*%
%TO.N,LED5*%
X117691500Y-68880000D03*
D12*
X117691500Y-68045000D03*
D11*
%TO.P,U1,4,GPIO29/ADC3/A3*%
%TO.N,LED4*%
X120231500Y-68880000D03*
D12*
X120231500Y-68045000D03*
D11*
%TO.P,U1,3,GPIO28/ADC2/A2*%
%TO.N,button3*%
X122771500Y-68880000D03*
D12*
X122771500Y-68045000D03*
D11*
%TO.P,U1,2,GPIO27/ADC1/A1*%
%TO.N,button2*%
X125311500Y-68880000D03*
D12*
X125311500Y-68045000D03*
D11*
%TO.P,U1,1,GPIO26/ADC0/A0*%
%TO.N,button1*%
X127851500Y-68880000D03*
D12*
X127851500Y-68045000D03*
%TD*%
D13*
%TO.P,SW4,2,2*%
%TO.N,GND*%
X116610000Y-49960000D03*
%TO.P,SW4,1,1*%
%TO.N,button4*%
X122960000Y-47420000D03*
%TD*%
D14*
%TO.P,R4,1*%
%TO.N,Net-(D4-PadA)*%
X68576979Y-65770000D03*
%TO.P,R4,2*%
%TO.N,LED4*%
X63496979Y-65770000D03*
%TD*%
D15*
%TO.P,D2,A*%
%TO.N,Net-(D2-PadA)*%
X83000000Y-77190000D03*
D16*
%TO.P,D2,C*%
%TO.N,GND*%
X83000000Y-79730000D03*
%TD*%
D14*
%TO.P,R5,1*%
%TO.N,Net-(D5-PadA)*%
X83602638Y-65810000D03*
%TO.P,R5,2*%
%TO.N,LED5*%
X78522638Y-65810000D03*
%TD*%
D15*
%TO.P,D3,A*%
%TO.N,Net-(D3-PadA)*%
X98500000Y-77190000D03*
D16*
%TO.P,D3,C*%
%TO.N,GND*%
X98500000Y-79730000D03*
%TD*%
D15*
%TO.P,D4,A*%
%TO.N,Net-(D4-PadA)*%
X68500000Y-58730000D03*
D16*
%TO.P,D4,C*%
%TO.N,GND*%
X68500000Y-61270000D03*
%TD*%
D13*
%TO.P,SW2,1,1*%
%TO.N,button2*%
X97653333Y-94420000D03*
%TO.P,SW2,2,2*%
%TO.N,GND*%
X91303333Y-96960000D03*
%TD*%
D14*
%TO.P,R1,1*%
%TO.N,Net-(D1-PadA)*%
X68000000Y-84230000D03*
%TO.P,R1,2*%
%TO.N,LED1*%
X62920000Y-84230000D03*
%TD*%
%TO.P,R2,1*%
%TO.N,Net-(D2-PadA)*%
X83025660Y-84230000D03*
%TO.P,R2,2*%
%TO.N,LED2*%
X77945660Y-84230000D03*
%TD*%
D15*
%TO.P,D1,A*%
%TO.N,Net-(D1-PadA)*%
X68000000Y-77460000D03*
D16*
%TO.P,D1,C*%
%TO.N,GND*%
X68000000Y-80000000D03*
%TD*%
D13*
%TO.P,SW1,1,1*%
%TO.N,button1*%
X72960000Y-93920000D03*
%TO.P,SW1,2,2*%
%TO.N,GND*%
X66610000Y-96460000D03*
%TD*%
D15*
%TO.P,D5,A*%
%TO.N,Net-(D5-PadA)*%
X83500000Y-58730000D03*
D16*
%TO.P,D5,C*%
%TO.N,GND*%
X83500000Y-61270000D03*
%TD*%
D14*
%TO.P,R6,1*%
%TO.N,Net-(D6-PadA)*%
X98628298Y-65850000D03*
%TO.P,R6,2*%
%TO.N,LED6*%
X93548298Y-65850000D03*
%TD*%
%TO.P,R3,1*%
%TO.N,Net-(D3-PadA)*%
X98540000Y-84230000D03*
%TO.P,R3,2*%
%TO.N,LED3*%
X93460000Y-84230000D03*
%TD*%
D15*
%TO.P,D6,A*%
%TO.N,Net-(D6-PadA)*%
X98000000Y-59000000D03*
D16*
%TO.P,D6,C*%
%TO.N,GND*%
X98000000Y-61540000D03*
%TD*%
D13*
%TO.P,SW3,1,1*%
%TO.N,button3*%
X122346667Y-94420000D03*
%TO.P,SW3,2,2*%
%TO.N,GND*%
X115996667Y-96960000D03*
%TD*%
D17*
%TO.N,button4*%
X122960000Y-53284816D02*
X112611500Y-63633316D01*
X122960000Y-47420000D02*
X122960000Y-53284816D01*
X112611500Y-63633316D02*
X112611500Y-68880000D01*
%TO.N,LED4*%
X118366500Y-70745000D02*
X120231500Y-68880000D01*
X68471979Y-70745000D02*
X118366500Y-70745000D01*
X63496979Y-65770000D02*
X68471979Y-70745000D01*
%TO.N,LED5*%
X116227500Y-70344000D02*
X117691500Y-68880000D01*
X83056638Y-70344000D02*
X116227500Y-70344000D01*
X78522638Y-65810000D02*
X83056638Y-70344000D01*
%TO.N,LED6*%
X114088500Y-69943000D02*
X115151500Y-68880000D01*
X97641298Y-69943000D02*
X114088500Y-69943000D01*
X93548298Y-65850000D02*
X97641298Y-69943000D01*
%TO.N,LED1*%
X117691500Y-85197630D02*
X117691500Y-84120000D01*
X115389130Y-87500000D02*
X117691500Y-85197630D01*
X66190000Y-87500000D02*
X115389130Y-87500000D01*
X62920000Y-84230000D02*
X66190000Y-87500000D01*
%TO.N,LED2*%
X115151500Y-85197630D02*
X115151500Y-84120000D01*
X80187660Y-86472000D02*
X113877130Y-86472000D01*
X77945660Y-84230000D02*
X80187660Y-86472000D01*
X113877130Y-86472000D02*
X115151500Y-85197630D01*
%TO.N,LED3*%
X111231500Y-85500000D02*
X112611500Y-84120000D01*
X93460000Y-84230000D02*
X94730000Y-85500000D01*
X94730000Y-85500000D02*
X111231500Y-85500000D01*
%TO.N,LED6*%
X115151500Y-69261000D02*
X115151500Y-68880000D01*
%TO.N,button2*%
X127049874Y-66528000D02*
X125311500Y-68266374D01*
X128653126Y-66528000D02*
X127049874Y-66528000D01*
X129315500Y-67190374D02*
X128653126Y-66528000D01*
X125311500Y-68266374D02*
X125311500Y-68880000D01*
X129315500Y-86751600D02*
X129315500Y-67190374D01*
X103172333Y-88901000D02*
X127166100Y-88901000D01*
X127166100Y-88901000D02*
X129315500Y-86751600D01*
X97653333Y-94420000D02*
X103172333Y-88901000D01*
%TO.N,button1*%
X128914500Y-86585500D02*
X128914500Y-69943000D01*
X127000000Y-88500000D02*
X128914500Y-86585500D01*
X128914500Y-69943000D02*
X127851500Y-68880000D01*
X78380000Y-88500000D02*
X127000000Y-88500000D01*
X72960000Y-93920000D02*
X78380000Y-88500000D01*
%TO.N,Net-(D4-PadA)*%
X69708500Y-59938500D02*
X68500000Y-58730000D01*
X69708500Y-64638479D02*
X69708500Y-59938500D01*
X68576979Y-65770000D02*
X69708500Y-64638479D01*
%TO.N,Net-(D5-PadA)*%
X84708500Y-59938500D02*
X83500000Y-58730000D01*
X84708500Y-64704138D02*
X84708500Y-59938500D01*
X83602638Y-65810000D02*
X84708500Y-64704138D01*
%TO.N,Net-(D3-PadA)*%
X97291500Y-78398500D02*
X98500000Y-77190000D01*
X97291500Y-82981500D02*
X97291500Y-78398500D01*
X98540000Y-84230000D02*
X97291500Y-82981500D01*
%TO.N,Net-(D1-PadA)*%
X66791500Y-78668500D02*
X68000000Y-77460000D01*
X66791500Y-83021500D02*
X66791500Y-78668500D01*
X68000000Y-84230000D02*
X66791500Y-83021500D01*
%TO.N,Net-(D2-PadA)*%
X81791500Y-78398500D02*
X83000000Y-77190000D01*
X81791500Y-82995840D02*
X81791500Y-78398500D01*
X83025660Y-84230000D02*
X81791500Y-82995840D01*
%TO.N,Net-(D6-PadA)*%
X99328298Y-60328298D02*
X98000000Y-59000000D01*
X99328298Y-65150000D02*
X99328298Y-60328298D01*
X98628298Y-65850000D02*
X99328298Y-65150000D01*
%TO.N,LED3*%
X111818298Y-84120000D02*
X112611500Y-84120000D01*
%TD*%
M02*
