%TF.GenerationSoftware,KiCad,Pcbnew,9.0.2*%
%TF.CreationDate,2025-07-04T23:43:28-04:00*%
%TF.ProjectId,pathfinder,70617468-6669-46e6-9465-722e6b696361,rev?*%
%TF.SameCoordinates,Original*%
%TF.FileFunction,Soldermask,Top*%
%TF.FilePolarity,Negative*%
%FSLAX46Y46*%
G04 Gerber Fmt 4.6, Leading zero omitted, Abs format (unit mm)*
G04 Created by KiCad (PCBNEW 9.0.2) date 2025-07-04 23:43:28*
%MOMM*%
%LPD*%
G01*
G04 APERTURE LIST*
G04 Aperture macros list*
%AMRoundRect*
0 Rectangle with rounded corners*
0 $1 Rounding radius*
0 $2 $3 $4 $5 $6 $7 $8 $9 X,Y pos of 4 corners*
0 Add a 4 corners polygon primitive as box body*
4,1,4,$2,$3,$4,$5,$6,$7,$8,$9,$2,$3,0*
0 Add four circle primitives for the rounded corners*
1,1,$1+$1,$2,$3*
1,1,$1+$1,$4,$5*
1,1,$1+$1,$6,$7*
1,1,$1+$1,$8,$9*
0 Add four rect primitives between the rounded corners*
20,1,$1+$1,$2,$3,$4,$5,0*
20,1,$1+$1,$4,$5,$6,$7,0*
20,1,$1+$1,$6,$7,$8,$9,0*
20,1,$1+$1,$8,$9,$2,$3,0*%
G04 Aperture macros list end*
%ADD10RoundRect,0.152400X-0.609600X1.063600X-0.609600X-1.063600X0.609600X-1.063600X0.609600X1.063600X0*%
%ADD11C,1.524000*%
%ADD12RoundRect,0.152400X0.609600X-1.063600X0.609600X1.063600X-0.609600X1.063600X-0.609600X-1.063600X0*%
%ADD13C,2.200000*%
%ADD14C,1.700000*%
%ADD15C,4.000000*%
%ADD16C,1.400000*%
%ADD17C,2.019000*%
%ADD18RoundRect,0.102000X0.907500X-0.907500X0.907500X0.907500X-0.907500X0.907500X-0.907500X-0.907500X0*%
G04 APERTURE END LIST*
D10*
%TO.C,U1*%
X127851500Y-84955000D03*
D11*
X127851500Y-84120000D03*
D10*
X125311500Y-84955000D03*
D11*
X125311500Y-84120000D03*
D10*
X122771500Y-84955000D03*
D11*
X122771500Y-84120000D03*
D10*
X120231500Y-84955000D03*
D11*
X120231500Y-84120000D03*
D10*
X117691500Y-84955000D03*
D11*
X117691500Y-84120000D03*
D10*
X115151500Y-84955000D03*
D11*
X115151500Y-84120000D03*
D10*
X112611500Y-84955000D03*
D11*
X112611500Y-84120000D03*
X112611500Y-68880000D03*
D12*
X112611500Y-68045000D03*
D11*
X115151500Y-68880000D03*
D12*
X115151500Y-68045000D03*
D11*
X117691500Y-68880000D03*
D12*
X117691500Y-68045000D03*
D11*
X120231500Y-68880000D03*
D12*
X120231500Y-68045000D03*
D11*
X122771500Y-68880000D03*
D12*
X122771500Y-68045000D03*
D11*
X125311500Y-68880000D03*
D12*
X125311500Y-68045000D03*
D11*
X127851500Y-68880000D03*
D12*
X127851500Y-68045000D03*
%TD*%
D13*
%TO.C,SW4*%
X116610000Y-49960000D03*
X122960000Y-47420000D03*
D14*
X125500000Y-52500000D03*
D15*
X120420000Y-52500000D03*
D14*
X115340000Y-52500000D03*
%TD*%
D16*
%TO.C,R4*%
X68576979Y-65770000D03*
X63496979Y-65770000D03*
%TD*%
D17*
%TO.C,D2*%
X83000000Y-77190000D03*
D18*
X83000000Y-79730000D03*
%TD*%
D16*
%TO.C,R5*%
X83602638Y-65810000D03*
X78522638Y-65810000D03*
%TD*%
D17*
%TO.C,D3*%
X98500000Y-77190000D03*
D18*
X98500000Y-79730000D03*
%TD*%
D17*
%TO.C,D4*%
X68500000Y-58730000D03*
D18*
X68500000Y-61270000D03*
%TD*%
D14*
%TO.C,SW2*%
X90033333Y-99500000D03*
D15*
X95113333Y-99500000D03*
D14*
X100193333Y-99500000D03*
D13*
X97653333Y-94420000D03*
X91303333Y-96960000D03*
%TD*%
D16*
%TO.C,R1*%
X68000000Y-84230000D03*
X62920000Y-84230000D03*
%TD*%
%TO.C,R2*%
X83025660Y-84230000D03*
X77945660Y-84230000D03*
%TD*%
D17*
%TO.C,D1*%
X68000000Y-77460000D03*
D18*
X68000000Y-80000000D03*
%TD*%
D14*
%TO.C,SW1*%
X65340000Y-99000000D03*
D15*
X70420000Y-99000000D03*
D14*
X75500000Y-99000000D03*
D13*
X72960000Y-93920000D03*
X66610000Y-96460000D03*
%TD*%
D17*
%TO.C,D5*%
X83500000Y-58730000D03*
D18*
X83500000Y-61270000D03*
%TD*%
D16*
%TO.C,R6*%
X98628298Y-65850000D03*
X93548298Y-65850000D03*
%TD*%
%TO.C,R3*%
X98540000Y-84230000D03*
X93460000Y-84230000D03*
%TD*%
D17*
%TO.C,D6*%
X98000000Y-59000000D03*
D18*
X98000000Y-61540000D03*
%TD*%
D14*
%TO.C,SW3*%
X114726667Y-99500000D03*
D15*
X119806667Y-99500000D03*
D14*
X124886667Y-99500000D03*
D13*
X122346667Y-94420000D03*
X115996667Y-96960000D03*
%TD*%
M02*
