%TF.GenerationSoftware,KiCad,Pcbnew,9.0.2*%
%TF.CreationDate,2025-07-04T23:43:28-04:00*%
%TF.ProjectId,pathfinder,70617468-6669-46e6-9465-722e6b696361,rev?*%
%TF.SameCoordinates,Original*%
%TF.FileFunction,Copper,L2,Bot*%
%TF.FilePolarity,Positive*%
%FSLAX46Y46*%
G04 Gerber Fmt 4.6, Leading zero omitted, Abs format (unit mm)*
G04 Created by KiCad (PCBNEW 9.0.2) date 2025-07-04 23:43:28*
%MOMM*%
%LPD*%
G01*
G04 APERTURE LIST*
%TA.AperFunction,ComponentPad*%
%ADD10C,1.524000*%
%TD*%
%TA.AperFunction,ComponentPad*%
%ADD11C,2.200000*%
%TD*%
%TA.AperFunction,ComponentPad*%
%ADD12C,1.400000*%
%TD*%
%TA.AperFunction,ComponentPad*%
%ADD13C,1.815000*%
%TD*%
%TA.AperFunction,ComponentPad*%
%ADD14R,1.815000X1.815000*%
%TD*%
%TA.AperFunction,Conductor*%
%ADD15C,0.200000*%
%TD*%
G04 APERTURE END LIST*
D10*
%TO.P,U1,14,VBUS*%
%TO.N,unconnected-(U1-VBUS-Pad14)*%
X127851500Y-84120000D03*
%TO.P,U1,13,GND*%
%TO.N,GND*%
X125311500Y-84120000D03*
%TO.P,U1,12,3V3*%
%TO.N,unconnected-(U1-3V3-Pad12)*%
X122771500Y-84120000D03*
%TO.P,U1,11,GPIO3/MOSI*%
%TO.N,unconnected-(U1-GPIO3{slash}MOSI-Pad11)*%
X120231500Y-84120000D03*
%TO.P,U1,10,GPIO4/MISO*%
%TO.N,LED1*%
X117691500Y-84120000D03*
%TO.P,U1,9,GPIO2/SCK*%
%TO.N,LED2*%
X115151500Y-84120000D03*
%TO.P,U1,8,GPIO1/RX*%
%TO.N,LED3*%
X112611500Y-84120000D03*
%TO.P,U1,7,GPIO0/TX*%
%TO.N,button4*%
X112611500Y-68880000D03*
%TO.P,U1,6,GPIO7/SCL*%
%TO.N,LED6*%
X115151500Y-68880000D03*
%TO.P,U1,5,GPIO6/SDA*%
%TO.N,LED5*%
X117691500Y-68880000D03*
%TO.P,U1,4,GPIO29/ADC3/A3*%
%TO.N,LED4*%
X120231500Y-68880000D03*
%TO.P,U1,3,GPIO28/ADC2/A2*%
%TO.N,button3*%
X122771500Y-68880000D03*
%TO.P,U1,2,GPIO27/ADC1/A1*%
%TO.N,button2*%
X125311500Y-68880000D03*
%TO.P,U1,1,GPIO26/ADC0/A0*%
%TO.N,button1*%
X127851500Y-68880000D03*
%TD*%
D11*
%TO.P,SW4,2,2*%
%TO.N,GND*%
X116610000Y-49960000D03*
%TO.P,SW4,1,1*%
%TO.N,button4*%
X122960000Y-47420000D03*
%TD*%
D12*
%TO.P,R4,1*%
%TO.N,Net-(D4-PadA)*%
X68576979Y-65770000D03*
%TO.P,R4,2*%
%TO.N,LED4*%
X63496979Y-65770000D03*
%TD*%
D13*
%TO.P,D2,A*%
%TO.N,Net-(D2-PadA)*%
X83000000Y-77190000D03*
D14*
%TO.P,D2,C*%
%TO.N,GND*%
X83000000Y-79730000D03*
%TD*%
D12*
%TO.P,R5,1*%
%TO.N,Net-(D5-PadA)*%
X83602638Y-65810000D03*
%TO.P,R5,2*%
%TO.N,LED5*%
X78522638Y-65810000D03*
%TD*%
D13*
%TO.P,D3,A*%
%TO.N,Net-(D3-PadA)*%
X98500000Y-77190000D03*
D14*
%TO.P,D3,C*%
%TO.N,GND*%
X98500000Y-79730000D03*
%TD*%
D13*
%TO.P,D4,A*%
%TO.N,Net-(D4-PadA)*%
X68500000Y-58730000D03*
D14*
%TO.P,D4,C*%
%TO.N,GND*%
X68500000Y-61270000D03*
%TD*%
D11*
%TO.P,SW2,1,1*%
%TO.N,button2*%
X97653333Y-94420000D03*
%TO.P,SW2,2,2*%
%TO.N,GND*%
X91303333Y-96960000D03*
%TD*%
D12*
%TO.P,R1,1*%
%TO.N,Net-(D1-PadA)*%
X68000000Y-84230000D03*
%TO.P,R1,2*%
%TO.N,LED1*%
X62920000Y-84230000D03*
%TD*%
%TO.P,R2,1*%
%TO.N,Net-(D2-PadA)*%
X83025660Y-84230000D03*
%TO.P,R2,2*%
%TO.N,LED2*%
X77945660Y-84230000D03*
%TD*%
D13*
%TO.P,D1,A*%
%TO.N,Net-(D1-PadA)*%
X68000000Y-77460000D03*
D14*
%TO.P,D1,C*%
%TO.N,GND*%
X68000000Y-80000000D03*
%TD*%
D11*
%TO.P,SW1,1,1*%
%TO.N,button1*%
X72960000Y-93920000D03*
%TO.P,SW1,2,2*%
%TO.N,GND*%
X66610000Y-96460000D03*
%TD*%
D13*
%TO.P,D5,A*%
%TO.N,Net-(D5-PadA)*%
X83500000Y-58730000D03*
D14*
%TO.P,D5,C*%
%TO.N,GND*%
X83500000Y-61270000D03*
%TD*%
D12*
%TO.P,R6,1*%
%TO.N,Net-(D6-PadA)*%
X98628298Y-65850000D03*
%TO.P,R6,2*%
%TO.N,LED6*%
X93548298Y-65850000D03*
%TD*%
%TO.P,R3,1*%
%TO.N,Net-(D3-PadA)*%
X98540000Y-84230000D03*
%TO.P,R3,2*%
%TO.N,LED3*%
X93460000Y-84230000D03*
%TD*%
D13*
%TO.P,D6,A*%
%TO.N,Net-(D6-PadA)*%
X98000000Y-59000000D03*
D14*
%TO.P,D6,C*%
%TO.N,GND*%
X98000000Y-61540000D03*
%TD*%
D11*
%TO.P,SW3,1,1*%
%TO.N,button3*%
X122346667Y-94420000D03*
%TO.P,SW3,2,2*%
%TO.N,GND*%
X115996667Y-96960000D03*
%TD*%
D15*
%TO.N,button3*%
X123834500Y-69943000D02*
X122771500Y-68880000D01*
X123834500Y-92932167D02*
X123834500Y-69943000D01*
X122346667Y-94420000D02*
X123834500Y-92932167D01*
%TO.N,GND*%
X123040000Y-96960000D02*
X125311500Y-94688500D01*
X125311500Y-94688500D02*
X125311500Y-84120000D01*
X115996667Y-96960000D02*
X123040000Y-96960000D01*
X115996667Y-96960000D02*
X91303333Y-96960000D01*
X90803333Y-96460000D02*
X66610000Y-96460000D01*
X91303333Y-96960000D02*
X90803333Y-96460000D01*
X60000000Y-80000000D02*
X74000000Y-80000000D01*
X60000000Y-89850000D02*
X60000000Y-80000000D01*
X66610000Y-96460000D02*
X60000000Y-89850000D01*
X74000000Y-52000000D02*
X74000000Y-61270000D01*
X83500000Y-61270000D02*
X74000000Y-61270000D01*
X76040000Y-49960000D02*
X74000000Y-52000000D01*
X116610000Y-49960000D02*
X76040000Y-49960000D01*
X74000000Y-80000000D02*
X82730000Y-80000000D01*
X83000000Y-79730000D02*
X90000000Y-79730000D01*
X99708500Y-63248500D02*
X98000000Y-61540000D01*
X98500000Y-79730000D02*
X99708500Y-78521500D01*
X99708500Y-78521500D02*
X99708500Y-63248500D01*
X90000000Y-79730000D02*
X98500000Y-79730000D01*
X82730000Y-80000000D02*
X83000000Y-79730000D01*
X68000000Y-80000000D02*
X74000000Y-80000000D01*
X69577979Y-78422021D02*
X68000000Y-80000000D01*
X69577979Y-62347979D02*
X69577979Y-78422021D01*
X68500000Y-61270000D02*
X69577979Y-62347979D01*
X74000000Y-61270000D02*
X68500000Y-61270000D01*
X83770000Y-61540000D02*
X83500000Y-61270000D01*
X98000000Y-61540000D02*
X83770000Y-61540000D01*
%TD*%
M02*
